# xmcd CD database file
#
# Track frame offsets:
#	150
#	16442
#	38362
#	53877
#	68840
#	84065
#	95670
#	112515
#	130405
#	143190
#	160297
#	173135
#	186672
#	203737
#	221727
#	236260
#	259810
#	276045
#	285667
#	297995
#
# Disc length: 4275 seconds
#
# Revision: 6
# Processed by: cddbd v1.4PL0 Copyright (c) Steve Scherf et al.
# Submitted via: CDex 1.50Beta3
#
DISCID=2010b114
DTITLE=Conway Twitty - The Conway Twitty Collection - Disc 4
DYEAR=1994
DGENRE=Country
TTITLE0=I Want To Know You Before We Make Love
TTITLE1=That's My Job
TTITLE2=Goodbye Time
TTITLE3=Saturday Night Special
TTITLE4=(I Wish I Was) Still In YOur Dreams
TTITLE5=I Can't Help It (If I'm Still In Love With You)
TTITLE6=She's Got A Single Thing In Mind
TTITLE7=House On Old Lonesome Road
TTITLE8=Who's Gonna Know
TTITLE9=Crazy In Love
TTITLE10=I Couldn't See You Leavin'
TTITLE11=She's Got A Man On Her Mind
TTITLE12=Who Did They Think He Was
TTITLE13=I'm The Only Thing (I'll Hold Against You)
TTITLE14=Don't It Make You Lonely
TTITLE15=Rainy Night In Georgia
TTITLE16=I Will Always Find My Way To You
TTITLE17=Sweet Sweet Spirit
TTITLE18=Clinging To A Saving Hand
TTITLE19=Why Me Lord
EXTD=YEAR: 1994
EXTT0=
EXTT1=
EXTT2=
EXTT3=
EXTT4=
EXTT5=
EXTT6=
EXTT7=
EXTT8=
EXTT9=
EXTT10=
EXTT11=
EXTT12=
EXTT13=
EXTT14=
EXTT15=
EXTT16=Previously Unreleased\n
EXTT17=Previously Unreleased\n
EXTT18=
EXTT19=Live Version\nPreviously Unreleased\n
PLAYORDER=
